<?xml version="1.0" encoding="utf-8"?>
<!-- Generator: Adobe Illustrator 19.1.0, SVG Export Plug-In . SVG Version: 6.00 Build 0)  -->
<svg version="1.1" id="Capa_1" xmlns="http://www.w3.org/2000/svg" xmlns:xlink="http://www.w3.org/1999/xlink" x="0px" y="0px"
	 viewBox="-292 384.3 25.7 25.7" style="enable-background:new -292 384.3 25.7 25.7;" xml:space="preserve">
<style type="text/css">
	.st0{fill:#FFFFFF;}
</style>
<g>
	<path class="st0" d="M-285.6,392.9c-0.2-0.6-0.3-1.2-0.5-1.8c-0.8-0.5-1.4-1.4-1.4-2.4c0-1.6,1.3-2.8,2.8-2.8s2.8,1.3,2.8,2.8
		c0,0.2,0,0.4-0.1,0.6c0.3,0.6,0.5,1.3,0.7,2c0.5-0.7,0.9-1.6,0.9-2.6c0-2.4-1.9-4.3-4.3-4.3s-4.3,1.9-4.3,4.3
		C-289,390.7-287.6,392.4-285.6,392.9z"/>
	<path class="st0" d="M-288.6,403.1c1.1-1.1,2.3-0.7,3.9-0.5c1.4,0.2,2.7-0.2,2.6-0.9c-0.1-1.2-0.3-1.7-0.8-3.3
		c-0.4-1.2-1.1-3.5-1.7-5.6c-0.8-2.8-1.1-4.2,0-4.5c1.2-0.4,1.9,1.4,2.5,3.7c0.7,2.7,1.1,3.9,1.3,3.8c0.4-0.1-0.1-1.3,0.8-1.5
		c1.2-0.4,1.4,0.6,1.8,0.5c0.3-0.1,0.2-1.1,1.2-1.3c1-0.3,1.5,0.9,1.9,0.8c0.4-0.1,0.4-0.5,1-0.7c0.6-0.2,2.9,0.8,4.1,5.2
		c1.6,5.5-0.2,6.6,0.3,8.4l-7.2,2.7c-0.6-1.4-2.4-1.5-4-2.4c-1.6-0.9-2.7-2.7-6.9-2.6C-289.4,405-289.3,403.8-288.6,403.1z"/>
</g>
</svg>
