<?xml version="1.0" encoding="utf-8"?>
<!-- Generator: Adobe Illustrator 19.1.0, SVG Export Plug-In . SVG Version: 6.00 Build 0)  -->
<svg version="1.1" id="Ebene_1" xmlns="http://www.w3.org/2000/svg" xmlns:xlink="http://www.w3.org/1999/xlink" x="0px" y="0px"
	 viewBox="-49 141 512 512" style="enable-background:new -49 141 512 512;" xml:space="preserve">
<style type="text/css">
	.st0{fill:#FFFFFF;}
</style>
<path id="location-6-icon" class="st0" d="M207,191c-93.1,0-168.5,75.4-168.5,168.5C38.5,454,120.4,516.3,207,603
	c86.6-86.7,168.5-149,168.5-243.5C375.5,266.4,300.1,191,207,191z M207,478c-68.3,0-123.6-55.3-123.6-123.6
	c0-68.3,55.3-123.6,123.6-123.6c68.3,0,123.6,55.3,123.6,123.6C330.6,422.6,275.3,478,207,478z M290.8,319.3L182.8,427.2l-61.6-61.6
	l26.2-26.2l35.4,35.4l81.7-81.7L290.8,319.3z"/>
</svg>
