<?xml version="1.0" encoding="utf-8"?>
<!-- Generator: Adobe Illustrator 19.1.0, SVG Export Plug-In . SVG Version: 6.00 Build 0)  -->
<svg version="1.1" id="Ebene_1" xmlns="http://www.w3.org/2000/svg" xmlns:xlink="http://www.w3.org/1999/xlink" x="0px" y="0px"
	 viewBox="-49 141 512 512" style="enable-background:new -49 141 512 512;" xml:space="preserve">
<style type="text/css">
	.st0{fill:#3F729B;}
</style>
<path id="instagram-6-icon" class="st0" d="M365.5,365.3h-35.9c2.6,10.1,4.2,20.7,4.2,31.7c0,70-56.8,126.8-126.8,126.8
	S80.2,467,80.2,397c0-11,1.5-21.6,4.2-31.7H48.5v174.3c0,8.7,7.1,15.8,15.9,15.8h285.2c8.8,0,15.9-7.1,15.9-15.8L365.5,365.3
	L365.5,365.3z M365.5,254.4c0-8.8-7.1-15.8-15.9-15.8h-47.5c-8.8,0-15.8,7.1-15.8,15.8v47.5c0,8.7,7.1,15.8,15.8,15.8h47.5
	c8.8,0,15.9-7.1,15.9-15.8V254.4z M207,317.8c-43.8,0-79.2,35.5-79.2,79.2c0,43.8,35.5,79.2,79.2,79.2c43.8,0,79.2-35.5,79.2-79.2
	C286.2,353.2,250.8,317.8,207,317.8 M365.5,603H48.5C22.3,603,1,581.7,1,555.4V238.5C1,212.3,22.3,191,48.5,191h316.9
	c26.2,0,47.5,21.3,47.5,47.5v316.9C413,581.7,391.7,603,365.5,603"/>
</svg>
