<?xml version="1.0" encoding="utf-8"?>
<!-- Generator: Adobe Illustrator 19.1.0, SVG Export Plug-In . SVG Version: 6.00 Build 0)  -->
<svg version="1.1" id="Capa_1" xmlns="http://www.w3.org/2000/svg" xmlns:xlink="http://www.w3.org/1999/xlink" x="0px" y="0px"
	 viewBox="-62 154.8 485.2 485.2" style="enable-background:new -62 154.8 485.2 485.2;" xml:space="preserve">
<style type="text/css">
	.st0{fill:#FFFFFF;}
</style>
<g>
	<g>
		<rect x="89.6" y="518.7" class="st0" width="151.6" height="30.3"/>
		<path class="st0" d="M59.3,185.1h242.6v60.7h30.3v-60.7c0-16.7-13.6-30.3-30.3-30.3H59.3c-16.7,0-30.3,13.6-30.3,30.3v60.7h30.3
			V185.1z"/>
		<rect x="89.6" y="458" class="st0" width="181.9" height="30.3"/>
		<path class="st0" d="M392.9,276.1H-31.7c-16.7,0-30.3,13.6-30.3,30.3v182c0,16.8,13.6,30.3,30.3,30.3H29v91
			c0,16.8,13.6,30.3,30.3,30.3h242.6c16.8,0,30.3-13.6,30.3-30.3v-91h60.7c16.8,0,30.3-13.6,30.3-30.3v-182
			C423.2,289.7,409.6,276.1,392.9,276.1z M301.9,609.7H59.3v-182h242.6L301.9,609.7L301.9,609.7z M362.6,367.1
			c-16.8,0-30.3-13.6-30.3-30.3c0-16.7,13.6-30.3,30.3-30.3c16.8,0,30.3,13.6,30.3,30.3C392.9,353.5,379.3,367.1,362.6,367.1z"/>
	</g>
</g>
</svg>
