<?xml version="1.0" encoding="utf-8"?>
<!-- Generator: Adobe Illustrator 19.1.0, SVG Export Plug-In . SVG Version: 6.00 Build 0)  -->
<svg version="1.1" id="Ebene_1" xmlns="http://www.w3.org/2000/svg" xmlns:xlink="http://www.w3.org/1999/xlink" x="0px" y="0px"
	 viewBox="-49 141 512 512" style="enable-background:new -49 141 512 512;" xml:space="preserve">
<style type="text/css">
	.st0{fill:#B20083;}
</style>
<path id="link-icon" class="st0" d="M107.1,340.7c7.5-7.5,15.9-13.8,24.8-18.7c49.6-27.3,113.1-12.8,145,35.5L238.4,396
	c-11.1-25.2-38.5-39.6-65.8-33.5c-10.3,2.3-20.1,7.4-28,15.4l-73.9,73.9c-22.4,22.4-22.4,58.9,0,81.4c22.4,22.4,58.9,22.4,81.4,0
	l22.8-22.8c20.7,8.2,42.9,11.5,64.9,9.9l-50.3,50.3c-43.1,43.1-113,43.1-156.1,0s-43.1-113,0-156.1L107.1,340.7z M224.5,223.3
	l-50.3,50.3c21.9-1.6,44.2,1.6,64.9,9.9l22.8-22.8c22.4-22.4,58.9-22.4,81.4,0c22.4,22.4,22.4,58.9,0,81.4l-74,73.9
	c-22.5,22.5-59.1,22.3-81.4,0c-5.2-5.2-9.7-11.7-12.5-18l-38.5,38.5c4,6.1,8.3,11.5,13.7,16.9c13.9,14,31.7,24.3,52.1,29.3
	c26.5,6.4,54.8,2.8,79.2-10.6c8.9-4.9,17.3-11.1,24.8-18.7l73.9-73.9c43.1-43.1,43.1-113,0-156.1
	C337.5,180.2,267.6,180.2,224.5,223.3z"/>
</svg>
